<svg width="157" height="46" viewBox="0 0 157 46" fill="none" xmlns="http://www.w3.org/2000/svg">
<rect x="0.5" y="0.5" width="156" height="40" rx="3.5" stroke="url(#paint0_linear_50_2)"/>
<path d="M30.988 17.476L31.168 16.54C31.072 15.244 30.196 14.596 28.54 14.596C27.58 14.596 26.74 14.944 26.02 15.64C25.324 16.312 24.976 17.032 24.976 17.8C24.976 18.544 25.288 19.204 25.912 19.78C26.56 20.332 27.328 20.836 28.216 21.292C29.128 21.724 30.028 22.204 30.916 22.732C31.828 23.236 32.596 23.896 33.22 24.712C33.868 25.528 34.192 26.452 34.192 27.484C34.192 29.62 33.352 31.3 31.672 32.524C29.992 33.748 28.18 34.36 26.236 34.36C24.292 34.36 22.672 34.012 21.376 33.316C20.08 32.596 19.432 31.516 19.432 30.076C19.432 29.308 19.696 28.612 20.224 27.988C20.752 27.364 21.508 27.052 22.492 27.052C22.876 27.052 23.224 27.16 23.536 27.376C23.848 27.592 24.04 27.88 24.112 28.24C24.112 28.6 23.896 28.78 23.464 28.78C22.648 28.78 22.24 29.128 22.24 29.824C22.264 30.616 22.636 31.336 23.356 31.984C24.1 32.632 25.132 32.956 26.452 32.956C27.796 32.956 28.936 32.5 29.872 31.588C30.832 30.676 31.312 29.572 31.312 28.276C31.312 27.412 30.988 26.632 30.34 25.936C29.692 25.24 28.912 24.652 28 24.172C27.088 23.668 26.164 23.164 25.228 22.66C24.316 22.156 23.536 21.544 22.888 20.824C22.24 20.104 21.916 19.288 21.916 18.376C21.916 16.768 22.6 15.484 23.968 14.524C25.36 13.564 26.932 13.084 28.684 13.084C29.86 13.084 30.928 13.324 31.888 13.804C32.848 14.284 33.34 15.016 33.364 16C33.364 16.576 33.22 17.056 32.932 17.44C32.644 17.824 32.248 18.016 31.744 18.016C31.264 18.016 31.012 17.836 30.988 17.476ZM46.7026 13.156C46.8466 13.132 47.2306 13.12 47.8546 13.12C48.5026 13.12 49.2706 13.24 50.1586 13.48C51.0706 13.696 51.9466 14.068 52.7866 14.596C53.6506 15.1 54.3346 15.856 54.8386 16.864C55.3666 17.848 55.6306 19.024 55.6306 20.392C55.6306 22.648 54.7546 24.472 53.0026 25.864C51.2506 27.256 48.9346 27.952 46.0546 27.952C46.0546 32.632 45.2266 34.972 43.5706 34.972C42.4666 34.972 41.9146 34.504 41.9146 33.568C41.9146 33.28 42.0586 32.884 42.3466 32.38C42.6346 31.876 42.8386 31.3 42.9586 30.652C43.0786 30.004 43.1746 28.96 43.2466 27.52C42.2626 27.208 41.7706 26.776 41.7706 26.224C41.7706 25.672 42.0226 25.396 42.5266 25.396C42.7906 25.396 43.0546 25.432 43.3186 25.504C43.6306 19.096 43.8466 15.556 43.9666 14.884C42.5986 15.22 41.4586 15.772 40.5466 16.54C39.6586 17.308 39.2146 18.22 39.2146 19.276C39.2146 19.876 39.0826 20.344 38.8186 20.68C38.5786 21.016 38.2666 21.184 37.8826 21.184C37.1626 21.184 36.8026 20.776 36.8026 19.96C36.8026 18.352 37.5106 16.972 38.9266 15.82C40.3666 14.644 42.1546 13.852 44.2906 13.444C44.7466 11.908 45.3826 11.14 46.1986 11.14C46.5346 11.14 46.7026 11.812 46.7026 13.156ZM52.9306 21.4C52.9306 19.24 52.3066 17.596 51.0586 16.468C49.8346 15.316 48.3466 14.704 46.5946 14.632C46.2346 18.88 46.0546 22.876 46.0546 26.62C46.3906 26.668 46.6546 26.692 46.8466 26.692C48.8626 26.692 50.3746 26.176 51.3826 25.144C52.4146 24.112 52.9306 22.864 52.9306 21.4ZM65.7809 19.564L66.1409 21.256C66.1409 21.664 65.9969 22 65.7089 22.264C65.4209 22.528 65.0849 22.66 64.7009 22.66C64.3169 22.66 64.0289 22.48 63.8369 22.12C63.6689 21.76 63.5849 21.364 63.5849 20.932C63.5849 19.636 64.1369 18.472 65.2409 17.44C66.3689 16.384 67.6409 15.856 69.0569 15.856H69.2729C69.7529 14.032 70.4729 13.12 71.4329 13.12C71.7209 13.12 71.8649 13.504 71.8649 14.272C71.8649 14.416 71.8289 14.992 71.7569 16C72.1169 16.048 72.5369 16.108 73.0169 16.18C74.1449 16.348 75.0809 16.432 75.8249 16.432C76.5929 16.432 77.3609 16.312 78.1289 16.072C78.9209 15.808 79.4489 15.676 79.7129 15.676C80.3849 15.676 80.7209 16.024 80.7209 16.72C80.7209 17.392 80.3609 17.908 79.6409 18.268C78.9209 18.604 77.8769 18.772 76.5089 18.772C75.1409 18.772 73.4729 18.46 71.5049 17.836C71.2169 19.492 71.0489 20.74 71.0009 21.58C70.9529 22.42 70.9049 23.668 70.8569 25.324C71.8649 25.276 73.2569 25.252 75.0329 25.252C75.3449 25.252 75.6089 25.372 75.8249 25.612C76.0649 25.852 76.1849 26.104 76.1849 26.368C76.1849 26.632 76.1009 26.848 75.9329 27.016C75.7649 27.184 75.5849 27.268 75.3929 27.268L70.8209 27.016C70.7249 29.368 70.6409 30.964 70.5689 31.804C70.5209 32.644 70.2929 33.424 69.8849 34.144C69.4769 34.864 68.9969 35.224 68.4449 35.224C68.1329 35.224 67.7849 35.056 67.4009 34.72C67.0409 34.408 66.8609 34.108 66.8609 33.82C66.8609 33.532 66.8969 33.316 66.9689 33.172C67.0649 33.004 67.1609 32.848 67.2569 32.704C67.3769 32.536 67.4609 32.404 67.5089 32.308C67.7969 31.684 68.0609 29.968 68.3009 27.16L66.8969 27.34C66.7049 27.34 66.5489 27.28 66.4289 27.16C66.3089 27.016 66.2489 26.86 66.2489 26.692C66.2489 26.5 66.2849 26.332 66.3569 26.188C66.4289 26.044 66.5729 25.936 66.7889 25.864C67.0049 25.768 67.1609 25.708 67.2569 25.684C67.6409 25.588 68.0249 25.54 68.4089 25.54C68.4569 24.964 68.5169 23.716 68.5889 21.796C68.6849 19.876 68.8169 18.376 68.9849 17.296C68.8409 17.272 68.6249 17.26 68.3369 17.26C66.6329 17.26 65.7809 18.028 65.7809 19.564ZM88.1433 34.18C87.2073 34.18 86.4993 33.988 86.0193 33.604C85.8513 33.436 85.7673 33.016 85.7673 32.344C85.7673 31.648 85.7913 30.724 85.8393 29.572C85.2153 31.132 84.5913 32.296 83.9673 33.064C83.3673 33.808 82.5873 34.18 81.6273 34.18C80.6673 34.18 79.8273 33.736 79.1073 32.848C78.3873 31.936 78.0273 30.52 78.0273 28.6C78.0273 26.656 78.5673 24.94 79.6473 23.452C80.7513 21.964 82.1913 21.22 83.9673 21.22C84.7353 21.22 85.5993 21.724 86.5593 22.732C86.7513 22.468 87.0873 22.156 87.5673 21.796C88.0713 21.412 88.4913 21.22 88.8273 21.22C89.1873 21.22 89.3673 21.676 89.3673 22.588C89.3673 22.828 89.2953 23.296 89.1513 23.992C89.0313 24.688 88.8873 25.192 88.7193 25.504C88.5033 26.056 88.3953 28.012 88.3953 31.372C88.3953 32.02 88.4673 32.344 88.6113 32.344C89.0193 32.32 89.5833 31.816 90.3033 30.832C91.0233 29.824 91.7313 28.54 92.4273 26.98C93.1473 25.42 93.5793 24.64 93.7233 24.64C93.8913 24.64 93.9753 24.736 93.9753 24.928C93.9753 25.6 93.6273 26.668 92.9313 28.132C91.0353 32.164 89.4393 34.18 88.1433 34.18ZM83.7513 22.66C83.0793 22.66 82.3593 23.164 81.5913 24.172C80.8473 25.156 80.4753 26.32 80.4753 27.664C80.4753 29.008 80.6673 30.112 81.0513 30.976C81.4593 31.84 81.9873 32.272 82.6353 32.272C83.4273 32.272 84.5913 30.292 86.1273 26.332C86.1513 26.14 86.1753 25.816 86.1993 25.36C86.2473 24.88 86.2833 24.52 86.3073 24.28C86.0913 23.896 85.7073 23.536 85.1553 23.2C84.6273 22.84 84.1593 22.66 83.7513 22.66ZM97.1366 22.984L97.2086 22.444C97.2086 22.012 96.9566 21.796 96.4526 21.796C95.9726 21.796 95.5046 22.12 95.0486 22.768C94.5926 23.392 94.3646 23.908 94.3646 24.316C94.3646 24.724 94.3886 25.048 94.4366 25.288C94.4846 25.528 94.5326 25.732 94.5806 25.9C94.6526 26.044 94.7606 26.224 94.9046 26.44C95.0486 26.656 95.1566 26.812 95.2286 26.908L95.6246 27.412C95.7926 27.652 95.9126 27.808 95.9846 27.88C97.2326 26.848 98.7206 25.696 100.449 24.424C100.545 24.352 100.653 24.316 100.773 24.316C101.013 24.316 101.133 24.448 101.133 24.712C101.133 24.976 101.025 25.18 100.809 25.324C99.2726 26.308 97.8206 27.376 96.4526 28.528C96.9806 29.296 97.2446 30.136 97.2446 31.048C97.2446 31.96 96.8966 32.74 96.2006 33.388C95.5046 34.036 94.6166 34.36 93.5366 34.36C92.4566 34.36 91.9166 33.844 91.9166 32.812C91.9166 32.068 92.7086 30.928 94.2926 29.392C94.1726 29.248 93.9566 29.02 93.6446 28.708C93.3326 28.372 93.0926 28.108 92.9246 27.916C92.7806 27.724 92.6006 27.472 92.3846 27.16C92.0006 26.56 91.8086 25.912 91.8086 25.216C91.8086 23.8 92.2646 22.66 93.1766 21.796C94.0886 20.908 95.0606 20.464 96.0926 20.464C96.7406 20.464 97.2446 20.644 97.6046 21.004C97.9646 21.34 98.1446 21.688 98.1446 22.048C98.1446 22.864 97.9526 23.272 97.5686 23.272C97.2806 23.272 97.1366 23.176 97.1366 22.984ZM94.8326 30.076C93.8726 31.036 93.3926 31.816 93.3926 32.416C93.3926 32.992 93.6926 33.28 94.2926 33.28C94.6526 33.28 94.9526 33.136 95.1926 32.848C95.7206 32.128 95.6006 31.204 94.8326 30.076ZM102.285 32.056L102.321 33.172C102.321 33.844 102.129 34.18 101.745 34.18C101.169 34.18 100.617 34.108 100.089 33.964C99.5609 33.796 99.2969 33.58 99.2969 33.316C99.2969 33.028 99.3569 32.08 99.4769 30.472C99.6209 28.84 99.6929 27.616 99.6929 26.8V24.712C99.6929 18.568 100.785 14.656 102.969 12.976C103.473 12.592 103.989 12.4 104.517 12.4C104.757 12.4 104.997 12.664 105.237 13.192C105.477 13.72 105.597 14.404 105.597 15.244C105.597 17.308 105.249 19.24 104.553 21.04C103.857 22.84 103.149 24.22 102.429 25.18C102.405 25.78 102.393 26.716 102.393 27.988C102.489 27.844 102.993 27.028 103.905 25.54C104.817 24.052 105.585 22.96 106.209 22.264C106.857 21.568 107.433 21.22 107.937 21.22C108.441 21.22 108.885 21.388 109.269 21.724C109.677 22.06 109.881 22.48 109.881 22.984C109.881 24.04 109.761 25.6 109.521 27.664C109.305 29.704 109.197 31 109.197 31.552C109.197 32.08 109.269 32.344 109.413 32.344C109.821 32.32 110.385 31.816 111.105 30.832C111.825 29.824 112.533 28.54 113.229 26.98C113.949 25.42 114.381 24.64 114.525 24.64C114.693 24.64 114.777 24.736 114.777 24.928C114.777 25.6 114.429 26.668 113.733 28.132C111.837 32.164 110.241 34.18 108.945 34.18C108.009 34.18 107.301 33.988 106.821 33.604C106.653 33.436 106.569 33.004 106.569 32.308C106.569 31.588 106.629 30.436 106.749 28.852C106.893 27.244 106.965 26.044 106.965 25.252C106.965 24.46 106.821 24.064 106.533 24.064C106.269 24.064 105.549 24.892 104.373 26.548C103.197 28.18 102.573 29.224 102.501 29.68C102.357 30.52 102.285 31.312 102.285 32.056ZM104.625 16.036C104.625 15.028 104.493 14.524 104.229 14.524C103.797 14.524 103.377 15.856 102.969 18.52C102.753 19.936 102.597 21.58 102.501 23.452C103.917 20.5 104.625 18.028 104.625 16.036ZM113.988 16.396C113.988 15.964 114.216 15.592 114.672 15.28C115.128 14.968 115.536 14.812 115.896 14.812C116.544 14.812 116.868 15.184 116.868 15.928C116.868 16.672 116.676 17.32 116.292 17.872C115.908 18.4 115.368 18.664 114.672 18.664C114.216 18.664 113.988 17.908 113.988 16.396ZM115.032 34.18C114.096 34.18 113.388 33.988 112.908 33.604C112.74 33.436 112.656 32.836 112.656 31.804C112.656 30.772 112.728 29.056 112.872 26.656C113.04 24.232 113.184 22.924 113.304 22.732C113.424 22.54 113.796 22.18 114.42 21.652C115.044 21.124 115.524 20.86 115.86 20.86C116.22 20.86 116.4 21.316 116.4 22.228C116.4 22.468 116.328 22.936 116.184 23.632C116.064 24.328 115.92 24.832 115.752 25.144C115.44 25.936 115.284 28.012 115.284 31.372C115.284 32.02 115.356 32.344 115.5 32.344C115.908 32.32 116.472 31.816 117.192 30.832C117.912 29.824 118.62 28.54 119.316 26.98C120.036 25.42 120.468 24.64 120.612 24.64C120.78 24.64 120.864 24.736 120.864 24.928C120.864 25.6 120.516 26.668 119.82 28.132C117.924 32.164 116.328 34.18 115.032 34.18ZM130.217 26.188C131.177 25.876 131.837 25.612 132.197 25.396C132.581 25.156 132.869 24.976 133.061 24.856L133.493 24.604C133.613 24.532 133.709 24.496 133.781 24.496C133.973 24.496 134.069 24.604 134.069 24.82C134.069 25.036 133.697 25.42 132.953 25.972C132.209 26.5 131.285 26.98 130.181 27.412C130.013 29.428 129.377 31.06 128.273 32.308C127.169 33.556 125.597 34.18 123.557 34.18C122.069 34.18 120.929 33.592 120.137 32.416C119.345 31.216 118.949 29.824 118.949 28.24C118.949 26.632 119.417 25.12 120.353 23.704C121.313 22.288 122.537 21.58 124.025 21.58C124.697 21.1 125.489 20.86 126.401 20.86C127.337 20.86 128.201 21.352 128.993 22.336C129.785 23.32 130.193 24.604 130.217 26.188ZM127.877 28.024L126.581 28.096C125.477 28.096 124.541 27.772 123.773 27.124C123.005 26.452 122.621 25.72 122.621 24.928C122.621 24.136 122.753 23.452 123.017 22.876C121.985 23.692 121.469 25.3 121.469 27.7C121.469 28.852 121.709 29.956 122.189 31.012C122.669 32.044 123.425 32.56 124.457 32.56C125.489 32.56 126.293 32.128 126.869 31.264C127.445 30.376 127.781 29.296 127.877 28.024ZM125.645 22.048C125.261 22.048 124.961 22.228 124.745 22.588C124.529 22.924 124.421 23.296 124.421 23.704C124.421 24.592 124.721 25.312 125.321 25.864C125.945 26.416 126.665 26.692 127.481 26.692H127.913C127.865 25.516 127.661 24.448 127.301 23.488C126.965 22.528 126.413 22.048 125.645 22.048ZM134.871 32.056L134.907 33.172C134.907 33.844 134.715 34.18 134.331 34.18C133.755 34.18 133.203 34.108 132.675 33.964C132.147 33.796 131.882 33.58 131.882 33.316C131.882 33.028 131.942 32.08 132.062 30.472C132.207 28.84 132.279 27.616 132.279 26.8V24.676C132.279 23.524 132.399 22.828 132.639 22.588C132.879 22.348 133.299 22 133.899 21.544C134.523 21.088 134.967 20.86 135.231 20.86C135.519 20.86 135.699 20.908 135.771 21.004C135.843 21.1 135.879 21.28 135.879 21.544C135.879 22.816 135.639 24.016 135.159 25.144C135.039 26.512 134.979 27.46 134.979 27.988C135.075 27.844 135.579 27.028 136.491 25.54C137.403 24.052 138.171 22.96 138.795 22.264C139.443 21.568 140.019 21.22 140.523 21.22C141.027 21.22 141.471 21.388 141.855 21.724C142.263 22.06 142.467 22.48 142.467 22.984C142.467 24.04 142.347 25.6 142.107 27.664C141.891 29.704 141.783 31 141.783 31.552C141.783 32.08 141.855 32.344 141.999 32.344C142.407 32.32 142.971 31.816 143.691 30.832C144.411 29.824 145.119 28.54 145.815 26.98C146.535 25.42 146.967 24.64 147.111 24.64C147.279 24.64 147.363 24.736 147.363 24.928C147.363 25.6 147.015 26.668 146.319 28.132C144.423 32.164 142.827 34.18 141.531 34.18C140.595 34.18 139.887 33.988 139.407 33.604C139.239 33.436 139.155 33.004 139.155 32.308C139.155 31.588 139.215 30.436 139.335 28.852C139.479 27.244 139.551 26.044 139.551 25.252C139.551 24.46 139.407 24.064 139.119 24.064C138.855 24.064 138.135 24.892 136.959 26.548C135.783 28.18 135.159 29.224 135.087 29.68C134.943 30.52 134.871 31.312 134.871 32.056Z" fill="black"/>
<defs>
<linearGradient id="paint0_linear_50_2" x1="95" y1="52" x2="95" y2="20" gradientUnits="userSpaceOnUse">
<stop/>
<stop offset="1" stop-color="#666666" stop-opacity="0"/>
</linearGradient>
</defs>
</svg>
