<svg width="29" height="22" viewBox="0 0 29 22" fill="none" xmlns="http://www.w3.org/2000/svg">
<path d="M0 0H6.59091V2.44444H2.63636V6.11111H0V0ZM22.4091 0H29V6.11111H26.3636V2.44444H22.4091V0ZM26.3636 19.5556V15.8889H29V22H22.4091V19.5556H26.3636ZM2.63636 15.8889V19.5556H6.59091V22H0V15.8889H2.63636ZM7.90909 3.66667H9.22727V18.3333H7.90909V3.66667ZM3.95455 3.66667H6.59091V18.3333H3.95455V3.66667ZM11.8636 3.66667H14.5V18.3333H11.8636V3.66667ZM21.0909 3.66667H22.4091V18.3333H21.0909V3.66667ZM23.7273 3.66667H25.0455V18.3333H23.7273V3.66667ZM15.8182 3.66667H19.7727V18.3333H15.8182V3.66667Z" fill="black"/>
</svg>
