<svg width="19" height="20" viewBox="0 0 19 20" fill="none" xmlns="http://www.w3.org/2000/svg">
<path d="M2.375 20C1.72187 20 1.16296 19.7764 0.69825 19.3291C0.23275 18.8811 0 18.3429 0 17.7143V7.42857C0 7.06667 0.0843123 6.72381 0.252937 6.4C0.420771 6.07619 0.653125 5.80952 0.95 5.6L8.075 0.457143C8.29271 0.304762 8.52031 0.190476 8.75781 0.114286C8.99531 0.0380951 9.24271 0 9.5 0C9.75729 0 10.0047 0.0380951 10.2422 0.114286C10.4797 0.190476 10.7073 0.304762 10.925 0.457143L18.05 5.6C18.3469 5.80952 18.5796 6.07619 18.7483 6.4C18.9161 6.72381 19 7.06667 19 7.42857V17.7143C19 18.3429 18.7676 18.8811 18.3029 19.3291C17.8374 19.7764 17.2781 20 16.625 20H11.875V12H7.125V20H2.375Z" fill="black"/>
</svg>
