<svg width="19" height="20" viewBox="0 0 19 20" fill="none" xmlns="http://www.w3.org/2000/svg">
<path d="M2.11111 20C1.53056 20 1.03339 19.7826 0.619611 19.3478C0.206537 18.9122 0 18.3889 0 17.7778V2.22222C0 1.61111 0.206537 1.08778 0.619611 0.652222C1.03339 0.217407 1.53056 0 2.11111 0H16.8889C17.4694 0 17.9666 0.217407 18.3804 0.652222C18.7935 1.08778 19 1.61111 19 2.22222V17.7778C19 18.3889 18.7935 18.9122 18.3804 19.3478C17.9666 19.7826 17.4694 20 16.8889 20H2.11111ZM5.27778 15.5556C5.57685 15.5556 5.82772 15.4489 6.03039 15.2356C6.23235 15.023 6.33333 14.7593 6.33333 14.4444C6.33333 14.1296 6.23235 13.8656 6.03039 13.6522C5.82772 13.4396 5.57685 13.3333 5.27778 13.3333C4.9787 13.3333 4.72783 13.4396 4.52517 13.6522C4.3232 13.8656 4.22222 14.1296 4.22222 14.4444C4.22222 14.7593 4.3232 15.023 4.52517 15.2356C4.72783 15.4489 4.9787 15.5556 5.27778 15.5556ZM5.27778 11.1111C5.57685 11.1111 5.82772 11.0044 6.03039 10.7911C6.23235 10.5785 6.33333 10.3148 6.33333 10C6.33333 9.68519 6.23235 9.42111 6.03039 9.20778C5.82772 8.99518 5.57685 8.88889 5.27778 8.88889C4.9787 8.88889 4.72783 8.99518 4.52517 9.20778C4.3232 9.42111 4.22222 9.68519 4.22222 10C4.22222 10.3148 4.3232 10.5785 4.52517 10.7911C4.72783 11.0044 4.9787 11.1111 5.27778 11.1111ZM5.27778 6.66667C5.57685 6.66667 5.82772 6.56 6.03039 6.34667C6.23235 6.13407 6.33333 5.87037 6.33333 5.55556C6.33333 5.24074 6.23235 4.97667 6.03039 4.76333C5.82772 4.55074 5.57685 4.44444 5.27778 4.44444C4.9787 4.44444 4.72783 4.55074 4.52517 4.76333C4.3232 4.97667 4.22222 5.24074 4.22222 5.55556C4.22222 5.87037 4.3232 6.13407 4.52517 6.34667C4.72783 6.56 4.9787 6.66667 5.27778 6.66667ZM9.5 15.5556H13.7222C14.0213 15.5556 14.2718 15.4489 14.4738 15.2356C14.6764 15.023 14.7778 14.7593 14.7778 14.4444C14.7778 14.1296 14.6764 13.8656 14.4738 13.6522C14.2718 13.4396 14.0213 13.3333 13.7222 13.3333H9.5C9.20093 13.3333 8.95041 13.4396 8.74844 13.6522C8.54578 13.8656 8.44444 14.1296 8.44444 14.4444C8.44444 14.7593 8.54578 15.023 8.74844 15.2356C8.95041 15.4489 9.20093 15.5556 9.5 15.5556ZM9.5 11.1111H13.7222C14.0213 11.1111 14.2718 11.0044 14.4738 10.7911C14.6764 10.5785 14.7778 10.3148 14.7778 10C14.7778 9.68519 14.6764 9.42111 14.4738 9.20778C14.2718 8.99518 14.0213 8.88889 13.7222 8.88889H9.5C9.20093 8.88889 8.95041 8.99518 8.74844 9.20778C8.54578 9.42111 8.44444 9.68519 8.44444 10C8.44444 10.3148 8.54578 10.5785 8.74844 10.7911C8.95041 11.0044 9.20093 11.1111 9.5 11.1111ZM9.5 6.66667H13.7222C14.0213 6.66667 14.2718 6.56 14.4738 6.34667C14.6764 6.13407 14.7778 5.87037 14.7778 5.55556C14.7778 5.24074 14.6764 4.97667 14.4738 4.76333C14.2718 4.55074 14.0213 4.44444 13.7222 4.44444H9.5C9.20093 4.44444 8.95041 4.55074 8.74844 4.76333C8.54578 4.97667 8.44444 5.24074 8.44444 5.55556C8.44444 5.87037 8.54578 6.13407 8.74844 6.34667C8.95041 6.56 9.20093 6.66667 9.5 6.66667Z" fill="black"/>
</svg>
